<svg xmlns="http://www.w3.org/2000/svg" viewBox="0 0 400 300" width="400" height="300">
  <style>
    text { font-family: -apple-system, BlinkMacSystemFont, 'Segoe UI', sans-serif; }
    .title { font-size: 14px; font-weight: 600; fill: #ffffff; }
    .label { font-size: 10px; font-weight: 500; fill: #1d1d1f; }
    .sub { font-size: 8px; fill: #6e6e73; }
    .line { stroke: #d2d2d7; stroke-width: 1.5; fill: none; }
  </style>
  <rect width="400" height="300" fill="#ffffff" rx="8"/>

  <!-- Center node -->
  <rect x="150" y="120" width="100" height="40" rx="10" fill="#0071e3"/>
  <text x="200" y="145" text-anchor="middle" class="title">Rise</text>

  <!-- Trading Simulator -->
  <rect x="10" y="20" width="110" height="36" rx="8" fill="#f5f5f7"/>
  <text x="65" y="35" text-anchor="middle" class="label">Trading Sim</text>
  <text x="65" y="47" text-anchor="middle" class="sub">61 Assets, Risk Mgmt</text>
  <line x1="105" y1="56" x2="165" y2="120" class="line"/>

  <!-- Prediction Markets -->
  <rect x="145" y="20" width="110" height="36" rx="8" fill="#f5f5f7"/>
  <text x="200" y="35" text-anchor="middle" class="label">Prediction Markets</text>
  <text x="200" y="47" text-anchor="middle" class="sub">Polymarket, Filters</text>
  <line x1="200" y1="56" x2="200" y2="120" class="line"/>

  <!-- Monte Carlo -->
  <rect x="280" y="20" width="110" height="36" rx="8" fill="#f5f5f7"/>
  <text x="335" y="35" text-anchor="middle" class="label">Monte Carlo</text>
  <text x="335" y="47" text-anchor="middle" class="sub">5K Paths, Scenarios</text>
  <line x1="295" y1="56" x2="235" y2="120" class="line"/>

  <!-- Yahoo Finance API -->
  <rect x="5" y="130" width="110" height="36" rx="8" fill="#f5f5f7"/>
  <text x="60" y="145" text-anchor="middle" class="label">Yahoo Finance</text>
  <text x="60" y="157" text-anchor="middle" class="sub">Prices, History</text>
  <line x1="115" y1="145" x2="150" y2="140" class="line"/>

  <!-- Vercel -->
  <rect x="285" y="130" width="110" height="36" rx="8" fill="#f5f5f7"/>
  <text x="340" y="145" text-anchor="middle" class="label">Vercel</text>
  <text x="340" y="157" text-anchor="middle" class="sub">API, Blob Cache, CDN</text>
  <line x1="285" y1="145" x2="250" y2="140" class="line"/>

  <!-- React + Vite -->
  <rect x="30" y="220" width="110" height="36" rx="8" fill="#f5f5f7"/>
  <text x="85" y="235" text-anchor="middle" class="label">React + Vite</text>
  <text x="85" y="247" text-anchor="middle" class="sub">Hooks, Recharts</text>
  <line x1="120" y1="225" x2="180" y2="160" class="line"/>

  <!-- Historical Analysis -->
  <rect x="260" y="220" width="110" height="36" rx="8" fill="#f5f5f7"/>
  <text x="315" y="235" text-anchor="middle" class="label">Historical Analysis</text>
  <text x="315" y="247" text-anchor="middle" class="sub">1Y Charts, Volatility</text>
  <line x1="275" y1="225" x2="220" y2="160" class="line"/>

  <!-- Subtitle -->
  <text x="200" y="288" text-anchor="middle" class="sub">High-performance financial terminal</text>
</svg>