<svg xmlns="http://www.w3.org/2000/svg" viewBox="0 0 200 200" width="200" height="200">
  <rect width="200" height="200" rx="32" fill="#f5f5f7" stroke="#d1d5db" stroke-width="1"/>
  <rect x="12" y="12" width="176" height="176" rx="24" fill="none" stroke="#d1d5db" stroke-width="1.5"/>
  <!-- Grid lines -->
  <line x1="40" y1="160" x2="160" y2="160" stroke="#d1d5db" stroke-width="1"/>
  <line x1="40" y1="130" x2="160" y2="130" stroke="#d1d5db" stroke-width="0.5" stroke-dasharray="3,3"/>
  <line x1="40" y1="100" x2="160" y2="100" stroke="#d1d5db" stroke-width="0.5" stroke-dasharray="3,3"/>
  <line x1="40" y1="70" x2="160" y2="70" stroke="#d1d5db" stroke-width="0.5" stroke-dasharray="3,3"/>
  <!-- Candlesticks -->
  <line x1="55" y1="60" x2="55" y2="130" stroke="#059669" stroke-width="1.5"/>
  <rect x="49" y="75" width="12" height="35" rx="1" fill="#059669"/>
  <line x1="80" y1="50" x2="80" y2="120" stroke="#059669" stroke-width="1.5"/>
  <rect x="74" y="55" width="12" height="40" rx="1" fill="#059669"/>
  <line x1="105" y1="70" x2="105" y2="145" stroke="#dc2626" stroke-width="1.5"/>
  <rect x="99" y="80" width="12" height="45" rx="1" fill="#dc2626"/>
  <line x1="130" y1="45" x2="130" y2="110" stroke="#059669" stroke-width="1.5"/>
  <rect x="124" y="50" width="12" height="35" rx="1" fill="#059669"/>
  <line x1="155" y1="55" x2="155" y2="125" stroke="#059669" stroke-width="1.5"/>
  <rect x="149" y="60" width="12" height="30" rx="1" fill="#059669"/>
  <!-- Trend line -->
  <polyline points="55,90 80,70 105,100 130,65 155,72" fill="none" stroke="#059669" stroke-width="2" opacity="0.4"/>
  <!-- Eye/monitor accent -->
  <circle cx="100" cy="38" r="6" fill="none" stroke="#059669" stroke-width="1.5" opacity="0.6"/>
  <circle cx="100" cy="38" r="2" fill="#059669" opacity="0.6"/>
</svg>
