<svg xmlns="http://www.w3.org/2000/svg" viewBox="0 0 860 420">
  <defs>
    <linearGradient id="bg" x1="0" x2="1" y1="0" y2="1">
      <stop offset="0%" stop-color="#f8fbff"/>
      <stop offset="100%" stop-color="#eef4ff"/>
    </linearGradient>
  </defs>
  <style>
    .t { font-family: ui-monospace, SFMono-Regular, Menlo, Consolas, monospace; fill: #0f172a; }
    .label { font-size: 12px; font-weight: 700; }
    .sub { font-size: 11px; fill: #334155; }
    .box { fill: #ffffff; stroke: #cbd5e1; stroke-width: 1.2; rx: 10; }
    .group { fill: #0b63ce; stroke: #0b63ce; }
    .line { stroke: #64748b; stroke-width: 1.2; fill: none; }
  </style>

  <rect width="860" height="420" rx="16" fill="url(#bg)"/>
  <text x="430" y="34" text-anchor="middle" class="t label">rise project map</text>
  <text x="430" y="52" text-anchor="middle" class="t sub">lean layout: app + api gateway + handlers + tests + deploy</text>

  <rect x="355" y="72" width="150" height="36" class="box group"/>
  <text x="430" y="95" text-anchor="middle" class="t" style="font-size:13px;fill:#fff;font-weight:700;">rise/</text>

  <path d="M430 108v28M130 136h600" class="line" stroke-dasharray="5 4"/>

  <rect x="60" y="136" width="140" height="36" class="box group"/>
  <text x="130" y="159" text-anchor="middle" class="t" style="font-size:12px;fill:#fff;">src/</text>
  <rect x="50" y="190" width="160" height="28" class="box"/>
  <text x="130" y="209" text-anchor="middle" class="t sub">App.jsx + panels</text>
  <rect x="50" y="226" width="160" height="28" class="box"/>
  <text x="130" y="245" text-anchor="middle" class="t sub">hooks + utils</text>

  <rect x="240" y="136" width="140" height="36" class="box group"/>
  <text x="310" y="159" text-anchor="middle" class="t" style="font-size:12px;fill:#fff;">api gateway</text>
  <rect x="230" y="190" width="160" height="28" class="box"/>
  <text x="310" y="209" text-anchor="middle" class="t sub">single runtime: api/gateway.js</text>
  <rect x="230" y="226" width="160" height="28" class="box"/>
  <text x="310" y="245" text-anchor="middle" class="t sub">rewrites preserve /api/* URLs</text>

  <rect x="420" y="136" width="140" height="36" class="box group"/>
  <text x="490" y="159" text-anchor="middle" class="t" style="font-size:12px;fill:#fff;">tests/</text>
  <rect x="410" y="190" width="160" height="28" class="box"/>
  <text x="490" y="209" text-anchor="middle" class="t sub">vitest api + hooks</text>
  <rect x="410" y="226" width="160" height="28" class="box"/>
  <text x="490" y="245" text-anchor="middle" class="t sub">playwright speed checks</text>

  <rect x="600" y="136" width="200" height="36" class="box group"/>
  <text x="700" y="159" text-anchor="middle" class="t" style="font-size:12px;fill:#fff;">config + deploy</text>
  <rect x="620" y="190" width="160" height="28" class="box"/>
  <text x="700" y="209" text-anchor="middle" class="t sub">vite / vitest / package</text>
  <rect x="620" y="226" width="160" height="28" class="box"/>
  <text x="700" y="245" text-anchor="middle" class="t sub">vercel + github actions</text>

  <path d="M130 172v12M310 172v12M490 172v12M700 172v12" class="line"/>

  <rect x="60" y="290" width="740" height="78" class="box"/>
  <text x="80" y="315" class="t label" style="font-size:11px;">Data Flow</text>
  <text x="80" y="338" class="t sub">UI (src) -> API gateway -> server/api handlers -> external feeds (Yahoo, Polymarket, NOAA, Alpaca)</text>
  <text x="80" y="357" class="t sub">CI: npm test --run locally/CI, then push main for deploy targets</text>
</svg>
